<svg xmlns="http://www.w3.org/2000/svg" version="1.1" xmlns:xlink="http://www.w3.org/1999/xlink" xmlns:svgjs="http://svgjs.dev/svgjs" width="2000" height="535" viewBox="0 0 2000 535"><g transform="matrix(1,0,0,1,-1.2121212121213603,-0.8483680211703017)"><svg viewBox="0 0 396 106" data-background-color="#272626" preserveAspectRatio="xMidYMid meet" height="535" width="2000" xmlns="http://www.w3.org/2000/svg" xmlns:xlink="http://www.w3.org/1999/xlink"><g id="tight-bounds" transform="matrix(1,0,0,1,0.24000000000003752,0.16808786961505007)"><svg viewBox="0 0 395.5199999999999 105.6638242607699" height="105.6638242607699" width="395.5199999999999"><g><svg viewBox="0 0 559.9287294681354 149.58588913095986" height="105.6638242607699" width="395.5199999999999"><g transform="matrix(1,0,0,1,164.40872946813548,43.39873181794178)"><svg viewBox="0 0 395.52 62.78842549507629" height="62.78842549507629" width="395.52"><g id="textblocktransform"><svg viewBox="0 0 395.52 62.78842549507629" height="62.78842549507629" width="395.52" id="textblock"><g><svg viewBox="0 0 395.52 62.78842549507629" height="62.78842549507629" width="395.52"><g transform="matrix(1,0,0,1,0,0)"><svg width="395.52" viewBox="1.95 -35.23 225.59 35.82" height="62.78842549507629" data-palette-color="#fdfcfc"><path d="M1.95-31.35L1.95-35.11 28.25-35.11 28.25-31.35 17.46-31.35 17.46 0 12.87 0 12.87-31.35 1.95-31.35ZM43.75-25.95L43.75-25.95Q44.94-25.95 46.24-25.77 47.53-25.59 48.78-25.07L48.78-25.07Q50.02-24.54 51.13-23.62 52.24-22.71 53.1-21.24L53.1-21.24Q53.95-19.75 54.44-17.66 54.93-15.58 54.93-12.7L54.93-12.7Q54.93-9.81 54.44-7.73 53.95-5.64 53.1-4.17L53.1-4.17Q52.24-2.69 51.13-1.76 50.02-0.83 48.78-0.32L48.78-0.32Q47.53 0.22 46.24 0.4 44.94 0.59 43.75 0.59L43.75 0.59Q42.58 0.59 41.29 0.4 40.01 0.22 38.77-0.32L38.77-0.32Q37.52-0.83 36.42-1.76 35.32-2.69 34.47-4.17L34.47-4.17Q33.62-5.64 33.13-7.73 32.64-9.81 32.64-12.7L32.64-12.7Q32.64-15.58 33.13-17.66 33.62-19.75 34.47-21.24L34.47-21.24Q35.32-22.71 36.42-23.62 37.52-24.54 38.77-25.07L38.77-25.07Q40.01-25.59 41.28-25.77 42.55-25.95 43.75-25.95ZM43.75-22.51L43.75-22.51Q42.36-22.51 41.12-22.07 39.89-21.63 38.96-20.53L38.96-20.53Q38.01-19.41 37.45-17.53 36.89-15.65 36.89-12.7L36.89-12.7Q36.89-9.77 37.45-7.87 38.01-5.98 38.96-4.88L38.96-4.88Q39.89-3.76 41.12-3.33 42.36-2.91 43.75-2.91L43.75-2.91Q45.16-2.91 46.42-3.33 47.68-3.76 48.63-4.88L48.63-4.88Q49.58-5.98 50.13-7.87 50.68-9.77 50.68-12.7L50.68-12.7Q50.68-15.65 50.13-17.53 49.58-19.41 48.63-20.53L48.63-20.53Q47.68-21.63 46.42-22.07 45.16-22.51 43.75-22.51ZM83.39 0L75.97 0 75.97-35.11 83.39-35.11Q86.39-35.11 88.97-34.8 91.55-34.5 93.69-33.74L93.69-33.74Q95.84-32.98 97.47-31.73 99.09-30.47 100.26-28.52L100.26-28.52Q101.41-26.56 101.99-23.88 102.58-21.19 102.58-17.55L102.58-17.55Q102.58-13.92 101.99-11.23 101.41-8.54 100.26-6.59L100.26-6.59Q99.09-4.64 97.47-3.38 95.84-2.12 93.69-1.37L93.69-1.37Q91.55-0.61 88.97-0.31 86.39 0 83.39 0L83.39 0ZM80.56-3.76L84.15-3.76Q87.88-3.76 90.48-4.5 93.08-5.25 94.74-6.93L94.74-6.93Q96.38-8.62 97.12-11.22 97.87-13.82 97.87-17.55L97.87-17.55Q97.87-21.29 97.12-23.89 96.38-26.49 94.74-28.17L94.74-28.17Q93.08-29.86 90.48-30.6 87.88-31.35 84.15-31.35L84.15-31.35 80.56-31.35 80.56-3.76ZM118.67-25.95L118.67-25.95Q119.86-25.95 121.16-25.77 122.45-25.59 123.7-25.07L123.7-25.07Q124.94-24.54 126.05-23.62 127.16-22.71 128.02-21.24L128.02-21.24Q128.87-19.75 129.36-17.66 129.85-15.58 129.85-12.7L129.85-12.7Q129.85-9.81 129.36-7.73 128.87-5.64 128.02-4.17L128.02-4.17Q127.16-2.69 126.05-1.76 124.94-0.83 123.7-0.32L123.7-0.32Q122.45 0.22 121.16 0.4 119.86 0.59 118.67 0.59L118.67 0.59Q117.49 0.59 116.21 0.4 114.93 0.22 113.69-0.32L113.69-0.32Q112.44-0.83 111.34-1.76 110.24-2.69 109.39-4.17L109.39-4.17Q108.53-5.64 108.05-7.73 107.56-9.81 107.56-12.7L107.56-12.7Q107.56-15.58 108.05-17.66 108.53-19.75 109.39-21.24L109.39-21.24Q110.24-22.71 111.34-23.62 112.44-24.54 113.69-25.07L113.69-25.07Q114.93-25.59 116.2-25.77 117.47-25.95 118.67-25.95ZM118.67-22.51L118.67-22.51Q117.28-22.51 116.04-22.07 114.81-21.63 113.88-20.53L113.88-20.53Q112.93-19.41 112.37-17.53 111.81-15.65 111.81-12.7L111.81-12.7Q111.81-9.77 112.37-7.87 112.93-5.98 113.88-4.88L113.88-4.88Q114.81-3.76 116.04-3.33 117.28-2.91 118.67-2.91L118.67-2.91Q120.08-2.91 121.34-3.33 122.6-3.76 123.55-4.88L123.55-4.88Q124.5-5.98 125.05-7.87 125.6-9.77 125.6-12.7L125.6-12.7Q125.6-15.65 125.05-17.53 124.5-19.41 123.55-20.53L123.55-20.53Q122.6-21.63 121.34-22.07 120.08-22.51 118.67-22.51ZM151.21 0L151.21-35.11 155.8-35.11 155.8-3.76 170.18-3.76 170.18 0 151.21 0ZM178.45-35.23L178.45-35.23Q179.57-35.23 180.4-34.45L180.4-34.45Q181.21-33.59 181.21-32.45L181.21-32.45Q181.21-31.27 180.4-30.47L180.4-30.47Q179.57-29.64 178.45-29.64L178.45-29.64Q177.28-29.64 176.45-30.47L176.45-30.47Q175.62-31.25 175.62-32.45L175.62-32.45Q175.62-33.62 176.45-34.45L176.45-34.45Q177.28-35.23 178.45-35.23ZM176.3 0L176.3-25.39 180.5-25.39 180.5 0 176.3 0ZM196.78-25.95L196.78-25.95Q198.78-25.95 200.8-25.54 202.81-25.12 204.55-24.39L204.55-24.39Q204.2-23.61 203.84-22.85 203.47-22.09 203.03-21.36L203.03-21.36Q202.42-21.61 201.68-21.85 200.93-22.09 200.11-22.27 199.3-22.44 198.43-22.55 197.56-22.66 196.73-22.66L196.73-22.66Q195.83-22.66 194.99-22.47 194.15-22.29 193.5-21.88 192.85-21.46 192.46-20.79 192.07-20.12 192.07-19.12L192.07-19.12Q192.07-18.09 192.51-17.4 192.95-16.7 193.71-16.24 194.46-15.77 195.48-15.45 196.49-15.14 197.64-14.87L197.64-14.87Q199.42-14.43 200.96-13.88 202.49-13.33 203.62-12.45 204.74-11.57 205.38-10.28 206.01-8.98 206.01-7.08L206.01-7.08Q206.01-5.08 205.22-3.64 204.42-2.2 203.07-1.26 201.71-0.32 199.91 0.13 198.1 0.59 196.05 0.59L196.05 0.59Q194.98 0.59 193.84 0.45 192.7 0.32 191.59 0.06 190.48-0.2 189.41-0.56 188.33-0.93 187.38-1.37L187.38-1.37Q187.72-2.15 188.1-2.89 188.48-3.64 188.9-4.37L188.9-4.37Q189.7-4.03 190.61-3.72 191.51-3.42 192.46-3.2 193.41-2.98 194.34-2.84 195.27-2.71 196.12-2.71L196.12-2.71Q197.2-2.71 198.21-2.95 199.22-3.2 200.02-3.72 200.81-4.25 201.29-5.08 201.76-5.91 201.76-7.08L201.76-7.08Q201.76-8.18 201.31-8.89 200.86-9.59 200.1-10.07 199.35-10.55 198.33-10.85 197.32-11.16 196.2-11.43L196.2-11.43Q194.49-11.84 192.96-12.38 191.44-12.92 190.3-13.78 189.16-14.65 188.49-15.93 187.82-17.21 187.82-19.12L187.82-19.12Q187.82-20.9 188.55-22.19 189.29-23.49 190.52-24.32 191.75-25.15 193.38-25.55 195-25.95 196.78-25.95ZM214.8-25.39L214.8-31.2 219-31.2 219-25.39 227.54-25.39 227.54-21.85 219-21.85 219-7.28Q219-5.81 219.08-5.04 219.17-4.27 219.51-3.83L219.51-3.83Q220.14-2.95 222.07-2.95L222.07-2.95Q223.15-2.95 224.15-3.17L224.15-3.17Q225.17-3.39 226.03-3.66L226.03-3.66Q226.71-2.17 227.27-0.39L227.27-0.39Q224.39 0.59 221.46 0.59L221.46 0.59Q219.34 0.59 218.06 0.11 216.77-0.37 216.04-1.44L216.04-1.44Q215.29-2.56 215.04-4.13 214.8-5.69 214.8-8.45L214.8-8.45 214.8-21.85 211.13-21.85 211.13-25.39 214.8-25.39Z" opacity="1" transform="matrix(1,0,0,1,0,0)" fill="#fdfcfc" class="wordmark-text-0" data-fill-palette-color="primary" id="text-0"></path></svg></g></svg></g></svg></g></svg></g><g><svg viewBox="0 0 149.58588913095986 149.58588913095986" height="149.58588913095986" width="149.58588913095986"><g><svg xmlns="http://www.w3.org/2000/svg" version="1.1" data-icon="circle-check" viewBox="0 0 32 32" x="0" y="0" height="149.58588913095986" width="149.58588913095986" class="icon-icon-0" data-fill-palette-color="accent" id="icon-0"><path d="M16 0C7.163 0 0 7.163 0 16S7.163 32 16 32 32 24.837 32 16 24.837 0 16 0M22.906 8.906L25.094 10.906 13.094 24.187 6.906 17.999 9 15.905 12.906 19.811z" fill="#35ff69" data-fill-palette-color="accent"></path></svg></g></svg></g></svg></g><defs></defs></svg><rect width="395.5199999999999" height="105.6638242607699" fill="none" stroke="none" visibility="hidden"></rect></g></svg></g></svg>